HIERARCHY
ROOT hip
{
	OFFSET 0.000000 0.000000 0.000000
	CHANNELS 6 Xposition Yposition Zposition Xrotation Zrotation Yrotation 
	JOINT abdomen
	{
		OFFSET 0.000000 3.422050 0.000000
		CHANNELS 3 Xrotation Zrotation Yrotation 
		JOINT chest
		{
			OFFSET 0.000000 8.486693 -0.684411
			CHANNELS 3 Xrotation Zrotation Yrotation 
			JOINT neck
			{
				OFFSET 0.000000 10.266162 -0.273764
				CHANNELS 3 Xrotation Zrotation Yrotation 
				JOINT head
				{
					OFFSET 0.000000 3.148285 0.000000
					CHANNELS 3 Xrotation Zrotation Yrotation 
					End Site
					{
						OFFSET 0.000000 3.148289 0.000000
					}
				}
			}
			JOINT lCollar
			{
				OFFSET 3.422053 6.707223 -0.821293
				CHANNELS 3 Yrotation Zrotation Xrotation 
				JOINT lShldr
				{
					OFFSET 3.285171 0.000000 0.000000
					CHANNELS 3 Zrotation Yrotation Xrotation 
					JOINT lForeArm
					{
						OFFSET 10.129278 0.000000 0.000000
						CHANNELS 3 Yrotation Zrotation Xrotation 
						JOINT lHand
						{
							OFFSET 8.486692 0.000000 0.000000
							CHANNELS 3 Zrotation Yrotation Xrotation 
							End Site
							{
								OFFSET 4.106464 0.000000 0.000000
							}
						}
					}
				}
			}
			JOINT rCollar
			{
				OFFSET -3.558935 6.707223 -0.821293
				CHANNELS 3 Yrotation Zrotation Xrotation 
				JOINT rShldr
				{
					OFFSET -3.148289 0.000000 0.000000
					CHANNELS 3 Zrotation Yrotation Xrotation 
					JOINT rForeArm
					{
						OFFSET -10.266159 0.000000 0.000000
						CHANNELS 3 Yrotation Zrotation Xrotation 
						JOINT rHand
						{
							OFFSET -8.349810 0.000000 0.000000
							CHANNELS 3 Zrotation Yrotation Xrotation 
							End Site
							{
								OFFSET -4.106464 0.000000 0.000000
							}
						}
					}
				}
			}
		}
	}
	JOINT lThigh
	{
		OFFSET 5.338403 -1.642589 1.368821
		CHANNELS 3 Xrotation Zrotation Yrotation 
		JOINT lShin
		{
			OFFSET -2.053232 -20.121670 0.000000
			CHANNELS 3 Xrotation Zrotation Yrotation 
			JOINT lFoot
			{
				OFFSET 0.000000 -19.300380 -1.231939
				CHANNELS 3 Xrotation Yrotation Zrotation 
				End Site
				{
					OFFSET 0.000000 -2.463878 4.653993
				}
			}
		}
	}
	JOINT rThigh
	{
		OFFSET -5.338403 -1.642589 1.368821
		CHANNELS 3 Xrotation Zrotation Yrotation 
		JOINT rShin
		{
			OFFSET 2.053232 -20.121670 0.000000
			CHANNELS 3 Xrotation Zrotation Yrotation 
			JOINT rFoot
			{
				OFFSET 0.000000 -19.300380 -1.231939
				CHANNELS 3 Xrotation Yrotation Zrotation 
				End Site
				{
					OFFSET 0.000000 -2.463878 4.653993
				}
			}
		}
	}
}
MOTION
Frames: 18
Frame Time: 0.033264
0.000000 43.528500 0.000000 0.000000 0.000000 0.000000 0.000000 0.000000 0.000000 0.000000 0.000000 0.000000 0.000000 0.000000 0.000000 0.000000 0.000000 0.000000 0.000000 0.000000 0.000000 0.000000 0.000000 0.000000 0.000000 0.000000 0.000000 0.000000 0.000000 0.000000 0.000000 0.000000 0.000000 0.000000 0.000000 0.000000 0.000000 0.000000 0.000000 0.000000 0.000000 0.000000 0.000000 0.000000 0.000000 0.000000 0.000000 0.000000 0.000000 0.000000 0.000000 0.000000 0.000000 0.000000 0.000000 0.000000 0.000000 0.000000 0.000000 0.000000 
0.429528 42.744518 11.393176 29.998716 0.000000 0.000000 9.723853 0.311328 -0.421016 -16.135347 1.540892 -1.876940 0.225564 0.000000 0.000000 0.215069 0.000000 0.000000 -5.985173 -27.074272 28.501259 -31.708406 -30.474880 -66.879143 -76.528748 -74.317764 -78.792923 13.662416 -35.071114 128.333954 6.337869 26.117582 26.560022 31.519770 30.362818 -66.993813 75.283035 74.072441 -77.647774 -12.232256 29.297520 131.409393 -57.697765 15.985650 -1.023385 30.984556 -4.103458 1.453180 11.100766 20.115173 -0.363898 -57.437309 -16.516003 3.871751 29.548796 4.152931 -1.446765 13.645767 -22.036919 3.008168 
0.429528 42.744518 11.612449 29.002117 0.000000 0.000000 10.057075 0.311287 -0.421033 -14.701369 1.540838 -1.876928 0.305196 0.000000 0.000000 0.290725 0.000000 0.000000 -5.985174 -27.074274 28.501261 -31.708412 -30.474884 -66.879143 -76.528748 -74.317764 -78.792923 13.031091 -35.428265 128.720917 6.337869 26.117582 26.560022 31.519770 30.362818 -66.993813 75.283035 74.072456 -77.647774 -11.624882 29.629467 131.736267 -56.326756 16.630611 0.137338 30.984556 -4.103458 1.453180 10.466314 18.951206 0.070862 -56.065346 -17.190395 2.546102 29.548796 4.152931 -1.446765 12.935227 -20.760788 2.446521 
0.429528 42.744518 11.831721 28.004297 0.000000 0.000000 10.390341 0.311246 -0.421049 -13.263747 1.540785 -1.876917 0.384835 0.000000 0.000000 0.366387 0.000000 0.000000 -5.985172 -27.074274 28.501259 -31.708408 -30.474880 -66.879143 -76.528755 -74.317764 -78.792923 12.393690 -35.782063 129.114609 6.337869 26.117584 26.560024 31.519770 30.362822 -66.993820 75.283035 74.072441 -77.647774 -11.013026 29.958519 132.068436 -54.932964 17.250614 1.321847 30.984556 -4.103458 1.453180 9.844093 17.780266 0.490024 -54.667774 -17.836056 1.194583 29.548796 4.152931 -1.446765 12.241955 -19.474924 1.904863 
0.429528 42.744518 12.050994 27.005417 0.000000 0.000000 10.723648 0.311204 -0.421066 -11.822920 1.540730 -1.876907 0.464480 0.000000 0.000000 0.442055 0.000000 0.000000 -5.985174 -27.074274 28.501261 -31.708408 -30.474888 -66.879150 -76.528748 -74.317764 -78.792923 11.750171 -36.132412 129.515091 6.337869 26.117584 26.560022 31.519770 30.362818 -66.993813 75.283035 74.072456 -77.647774 -10.396685 30.284601 132.405884 -53.517097 17.844429 2.529449 30.984556 -4.103458 1.453180 9.233606 16.602886 0.894001 -53.245434 -18.451542 -0.181923 29.548796 4.152932 -1.446765 11.565247 -18.180054 1.382563 
0.429528 42.744518 12.270267 26.005623 0.000000 0.000000 11.056984 0.311163 -0.421084 -10.379336 1.540676 -1.876899 0.544132 0.000000 0.000000 0.517728 0.000000 0.000000 -5.985173 -27.074270 28.501257 -31.708403 -30.474876 -66.879135 -76.528748 -74.317749 -78.792923 11.100503 -36.479198 129.922379 6.337868 26.117580 26.560020 31.519770 30.362814 -66.993805 75.283035 74.072418 -77.647774 -9.775846 30.607632 132.748642 -52.079952 18.410852 3.759330 30.984552 -4.103457 1.453179 8.634371 15.419560 1.283186 -51.799381 -19.035471 -1.582383 29.548788 4.152931 -1.446765 10.904414 -16.876883 0.879010 
0.429528 42.744518 12.489540 25.005064 0.000000 0.000000 11.390354 0.311123 -0.421101 -8.933446 1.540620 -1.876892 0.623790 0.000000 0.000000 0.593407 0.000000 0.000000 -5.985173 -27.074272 28.501259 -31.708406 -30.474880 -66.879143 -76.528748 -74.317764 -78.792923 10.444668 -36.822350 130.336517 6.337868 26.117582 26.560020 31.519770 30.362818 -66.993813 75.283035 74.072441 -77.647774 -9.150498 30.927525 133.096695 -50.622444 18.948721 5.010552 30.984552 -4.103457 1.453179 8.045921 14.230803 1.657959 -50.330799 -19.586529 -3.005611 29.548796 4.152931 -1.446764 10.258795 -15.566131 0.393623 
0.429528 42.744518 12.708813 24.003891 0.000000 0.000000 11.723742 0.311082 -0.421119 -7.485706 1.540565 -1.876887 0.703455 0.000000 0.000000 0.669091 0.000000 0.000000 -5.985173 -27.074272 28.501259 -31.708406 -30.474880 -66.879143 -76.528748 -74.317764 -78.792923 9.782619 -37.161713 130.757492 6.337869 26.117582 26.560022 31.519770 30.362818 -66.993813 75.283035 74.072441 -77.647774 -8.520642 31.244196 133.450089 -49.145645 19.456938 6.282063 30.984556 -4.103458 1.453180 7.467798 13.037117 2.018683 -48.841015 -20.103462 -4.450263 29.548796 4.152931 -1.446765 9.627745 -14.248498 -0.074160 
0.429528 42.744518 12.928085 23.002262 0.000000 0.000000 12.057151 0.311041 -0.421137 -6.036578 1.540510 -1.876883 0.783126 0.000000 0.000000 0.744781 0.000000 0.000000 -5.985173 -27.074272 28.501259 -31.708406 -30.474880 -66.879143 -76.528748 -74.317764 -78.792923 9.114347 -37.497219 131.185364 6.337869 26.117582 26.560022 31.519770 30.362818 -66.993813 75.283035 74.072441 -77.647774 -7.886276 31.557568 133.808792 -47.650723 19.934465 7.572673 30.984556 -4.103458 1.453180 6.899555 11.839001 2.365706 -47.331543 -20.585115 -5.914854 29.548796 4.152931 -1.446765 9.010643 -12.924688 -0.524875 
0.429528 42.744518 13.147358 22.000326 0.000000 0.000000 12.390571 0.311000 -0.421155 -4.586522 1.540455 -1.876880 0.862804 0.000000 0.000000 0.820476 0.000000 0.000000 -5.985174 -27.074272 28.501257 -31.708408 -30.474884 -66.879143 -76.528748 -74.317764 -78.792923 8.439833 -37.828754 131.620148 6.337869 26.117582 26.560022 31.519770 30.362822 -66.993820 75.283035 74.072456 -77.647774 -7.247397 31.867550 134.172791 -46.138973 20.380331 8.881088 30.984556 -4.103458 1.453180 6.340761 10.636953 2.699361 -45.803986 -21.030416 -7.397741 29.548796 4.152931 -1.446765 8.406881 -11.595392 -0.959035 
0.429528 42.744518 13.366631 20.998236 0.000000 0.000000 12.723994 0.310960 -0.421174 -3.135998 1.540399 -1.876879 0.942487 0.000000 0.000000 0.896177 0.000000 0.000000 -5.985174 -27.074274 28.501261 -31.708406 -30.474880 -66.879143 -76.528786 -74.317810 -78.792953 7.759058 -38.156216 132.061859 6.337869 26.117582 26.560022 31.519773 30.362818 -66.993813 75.283035 74.072441 -77.647774 -6.604013 32.174068 134.542099 -44.611820 20.793659 10.205895 30.984556 -4.103458 1.453180 5.790997 9.431466 3.019966 -44.260151 -21.438412 -8.897147 29.548796 4.152932 -1.446765 7.815878 -10.261294 -1.377133 
0.429528 42.744518 13.585903 19.996147 0.000000 0.000000 13.057416 0.310920 -0.421192 -1.685475 1.540343 -1.876879 1.022177 0.000000 0.000000 0.971882 0.000000 0.000000 -5.985172 -27.074270 28.501257 -31.708406 -30.474876 -66.879128 -76.528748 -74.317749 -78.792923 7.072020 -38.479500 132.510468 6.337869 26.117582 26.560022 31.519766 30.362814 -66.993813 75.283035 74.072441 -77.647774 -5.956133 32.477039 134.916748 -43.070751 21.173622 11.545559 30.984556 -4.103457 1.453180 5.249852 8.223028 3.327823 -42.701927 -21.808245 -10.411161 29.548796 4.152931 -1.446765 7.237070 -8.923077 -1.779635 
0.429528 42.744518 13.805176 18.994213 0.000000 0.000000 13.390834 0.310879 -0.421211 -0.235419 1.540288 -1.876881 1.101873 0.000000 0.000000 1.047593 0.000000 0.000000 -5.985173 -27.074272 28.501259 -31.708406 -30.474880 -66.879143 -76.528748 -74.317772 -78.792923 6.378709 -38.798500 132.966034 6.337869 26.117582 26.560020 31.519770 30.362818 -66.993813 75.283035 74.072418 -77.647774 -5.303766 32.776382 135.296646 -41.517406 21.519527 12.898458 30.984556 -4.103458 1.453180 4.716927 7.012125 3.623220 -41.131340 -22.139200 -11.937753 29.548796 4.152931 -1.446765 6.669908 -7.581411 -2.166990 
0.429528 42.744518 14.024448 17.992580 0.000000 0.000000 13.724244 0.310839 -0.421230 1.213712 1.540233 -1.876883 1.181574 0.000000 0.000000 1.123309 0.000000 0.000000 -5.985173 -27.074272 28.501259 -31.708406 -30.474880 -66.879143 -76.528748 -74.317764 -78.792923 5.679131 -39.113117 133.428513 6.337869 26.117582 26.560022 31.519770 30.362818 -66.993813 75.283035 74.072441 -77.647774 -4.646924 33.072014 135.681839 -39.953533 21.830765 14.262859 30.984556 -4.103458 1.453180 4.191833 5.799232 3.906432 -39.550549 -22.430689 -13.474791 29.548796 4.152931 -1.446765 6.113861 -6.236955 -2.539623 
0.429528 42.744518 14.243721 16.991409 0.000000 0.000000 14.057632 0.310799 -0.421250 2.661449 1.540177 -1.876888 1.261282 0.000000 0.000000 1.199030 0.000000 0.000000 -5.985173 -27.074272 28.501259 -31.708406 -30.474880 -66.879143 -76.528748 -74.317764 -78.792923 4.973290 -39.423244 133.897903 6.337869 26.117582 26.560022 31.519770 30.362818 -66.993813 75.283035 74.072441 -77.647774 -3.985631 33.363857 136.072296 -38.380890 22.106821 15.636957 30.984556 -4.103458 1.453180 3.674191 4.584826 4.177720 -37.961758 -22.682251 -15.020051 29.548796 4.152931 -1.446765 5.568419 -4.890367 -2.897937 
0.429528 42.744518 14.462994 15.990849 0.000000 0.000000 14.391002 0.310759 -0.421269 4.107339 1.540123 -1.876893 1.340996 0.000000 0.000000 1.274756 0.000000 0.000000 -5.985173 -27.074272 28.501259 -31.708406 -30.474880 -66.879143 -76.528778 -74.317787 -78.792953 4.261204 -39.728775 134.374207 6.337869 26.117584 26.560022 31.519770 30.362822 -66.993820 75.283035 74.072441 -77.647774 -3.319902 33.651821 136.467972 -36.801376 22.347313 17.018879 30.984556 -4.103458 1.453180 3.163632 3.369372 4.437329 -36.367256 -22.893576 -16.571226 29.548796 4.152931 -1.446765 5.033080 -3.542284 -3.242318 
0.429528 42.744518 14.682266 14.991053 0.000000 0.000000 14.724342 0.310719 -0.421289 5.550920 1.540067 -1.876900 1.420715 0.000000 0.000000 1.350487 0.000000 0.000000 -5.985175 -27.074274 28.501259 -31.708406 -30.474880 -66.879143 -76.528786 -74.317787 -78.792953 3.542881 -40.029610 134.857407 6.337868 26.117584 26.560022 31.519770 30.362818 -66.993813 75.283035 74.072456 -77.647774 -2.649766 33.935844 136.868881 -35.216915 22.551950 18.406672 30.984556 -4.103458 1.453180 2.659795 2.153334 4.685494 -34.769398 -23.064493 -18.125975 29.548796 4.152931 -1.446765 4.507366 -2.193344 -3.573131 
0.429528 42.744518 14.901540 13.992174 0.000000 0.000000 15.057649 0.310680 -0.421309 6.991748 1.540013 -1.876909 1.500440 0.000000 0.000000 1.426223 0.000000 0.000000 -5.985171 -27.074270 28.501257 -31.708406 -30.474880 -66.879143 -76.528748 -74.317764 -78.792923 2.818355 -40.325638 135.347458 6.337868 26.117582 26.560022 31.519762 30.362814 -66.993813 75.283005 74.072403 -77.647743 -1.975252 34.215836 137.274933 -33.629494 22.720575 19.798370 30.984552 -4.103457 1.453179 2.162327 0.937164 4.922435 -33.170570 -23.194992 -19.681921 29.548796 4.152931 -1.446765 3.990808 -0.844165 -3.890721 
